<svg xmlns="http://www.w3.org/2000/svg" viewBox="0 0 300 45"><defs><style>.cls-1{fill:#181716;}</style></defs><path class="cls-1" d="M284.075,44.604h5.074V29.972c0-6.903,4.071-10.148,7.788-10.148a7.41628,7.41628,0,0,1,2.773.472V15.045a10.51263,10.51263,0,0,0-2.301-.236,8.77677,8.77677,0,0,0-8.26,6.018V15.104h-5.074ZM251.13,33.217c0,7.316,4.366,11.977,10.856,11.977a10.14976,10.14976,0,0,0,9.086-5.133v4.543h5.074v-29.5h-5.074V29.736c0,6.785-3.599,10.797-8.201,10.797-4.071,0-6.667-3.127-6.667-8.083V15.104H251.13Zm-4.572,10.974V39.648a11.21511,11.21511,0,0,1-3.599.59c-3.186,0-4.897-1.239-4.897-5.015V19.765h8.496V15.104h-8.496V6.903h-5.074v8.201h-6.254v4.661h6.254V35.872c0,6.136,3.894,9.027,9.027,9.027a14.11733,14.11733,0,0,0,4.543-.708m-47.2.413h5.074V29.854l15.989,14.75h6.844L209.506,28.143,224.02,15.104h-6.726L204.432,26.609V.354h-5.074ZM179.027,18.998c4.366,0,8.024,2.714,8.968,8.201H169.587c1.003-5.841,5.192-8.201,9.44-8.201m13.865,16.638H187.7c-1.77,3.54-4.897,4.956-8.555,4.956a9.64655,9.64655,0,0,1-9.794-9.381h24.013c.708-9.145-4.897-16.697-14.16-16.697-9.204,0-14.986,6.726-14.986,15.34,0,8.791,6.254,15.34,14.868,15.34,7.493,0,12.331-4.366,13.806-9.558m-31.004,8.555V39.648a11.21511,11.21511,0,0,1-3.599.59c-3.186,0-4.897-1.239-4.897-5.015V19.765h8.496V15.104h-8.496V6.903h-5.074v8.201h-6.254v4.661h6.254V35.872c0,6.136,3.894,9.027,9.027,9.027a14.11728,14.11728,0,0,0,4.543-.708m-29.299.413h5.074v-29.5h-5.074Zm6.136-41.005A3.563,3.563,0,0,0,135.185,0a3.66468,3.66468,0,0,0-3.658,3.599,3.62617,3.62617,0,0,0,3.658,3.599,3.52638,3.52638,0,0,0,3.54-3.599M99.39,44.604h5.074V29.972c0-6.903,3.776-10.797,8.555-10.797,4.13,0,6.962,3.068,6.962,8.024V44.604h5.015V26.432c0-7.316-4.543-11.918-11.151-11.918a10.43181,10.43181,0,0,0-9.381,5.133V.354H99.39ZM93.685,34.22H88.257a9.63569,9.63569,0,0,1-9.44,6.313c-6.136,0-10.266-4.72-10.266-10.679s4.13-10.679,10.266-10.679a9.63569,9.63569,0,0,1,9.44,6.313h5.428c-1.652-6.372-7.434-10.974-14.868-10.974a15.10245,15.10245,0,0,0-15.399,15.34,15.10245,15.10245,0,0,0,15.399,15.34c7.434,0,13.216-4.602,14.868-10.974M45.836,44.604H50.91V29.972c0-6.903,4.071-10.148,7.788-10.148a7.41635,7.41635,0,0,1,2.773.472V15.045a10.51272,10.51272,0,0,0-2.301-.236,8.77674,8.77674,0,0,0-8.26,6.018V15.104H45.836ZM13.157,27.435l7.611-17.287,7.611,17.287ZM0,44.604H5.664l5.369-12.213H30.562l5.369,12.213h5.723L23.069,2.714H18.526Z"/></svg>