<svg xmlns="http://www.w3.org/2000/svg" viewBox="0 0 231 89"><defs><style>.cls-1{fill:#181716;}</style></defs><path class="cls-1" d="M221.776,58.19c0,11.615-7.935,20.815-19.55,20.815s-19.665-9.2-19.665-20.815,8.05-20.815,19.665-20.815,19.55,9.2,19.55,20.815m-49.22,0c0,16.445,12.075,29.9,28.175,29.9,8.625,0,16.445-4.485,20.24-10.005V86.94h9.89V.69h-9.89V38.295c-3.795-5.52-11.615-10.005-20.24-10.005-16.1,0-28.175,13.455-28.175,29.9M153.007,86.94h9.89V29.44h-9.89Zm11.96-79.925A6.94469,6.94469,0,0,0,158.067,0a7.143,7.143,0,0,0-7.13,7.015,7.06794,7.06794,0,0,0,7.13,7.015,6.87341,6.87341,0,0,0,6.9-7.015M85.801,86.94H98.106l17.48-21.735,17.48,21.735h12.19l-23.46-29.095,21.62-28.405H131.341l-15.755,20.7-15.87-20.7H87.756l21.62,28.405ZM10.81,46.115c0-17.94,13.57-32.085,31.395-32.085,17.94,0,31.51,14.145,31.51,32.085S60.145,78.2,42.205,78.2C24.38,78.2,10.81,64.055,10.81,46.115m73.6,0A41.79785,41.79785,0,0,0,42.205,3.91,41.86919,41.86919,0,0,0,0,46.115,41.86919,41.86919,0,0,0,42.205,88.32,41.79785,41.79785,0,0,0,84.41,46.115"/></svg>